<?xml version="1.0" encoding="UTF-8" standalone="no"?>
<svg
   xmlns:dc="http://purl.org/dc/elements/1.1/"
   xmlns:cc="http://creativecommons.org/ns#"
   xmlns:rdf="http://www.w3.org/1999/02/22-rdf-syntax-ns#"
   xmlns:svg="http://www.w3.org/2000/svg"
   xmlns="http://www.w3.org/2000/svg"
   xmlns:sodipodi="http://sodipodi.sourceforge.net/DTD/sodipodi-0.dtd"
   xmlns:inkscape="http://www.inkscape.org/namespaces/inkscape"
   inkscape:export-ydpi="96"
   inkscape:export-xdpi="96"
   inkscape:export-filename="C:\Projects\Godot\knaker-server\knåker server.png"
   width="72mm"
   height="72mm"
   viewBox="0 0 72 72"
   version="1.1"
   id="svg8"
   inkscape:version="1.0 (4035a4fb49, 2020-05-01)"
   sodipodi:docname="knåker server.svg">
  <defs
     id="defs2">
    <clipPath
       clipPathUnits="userSpaceOnUse"
       id="clipEmfPath1">
      <path
         d="M 0,0 H 264.09071 V 373.01291 H 0 Z"
         id="path833" />
    </clipPath>
    <pattern
       id="EMFhbasepattern"
       patternUnits="userSpaceOnUse"
       width="6"
       height="6"
       x="0"
       y="0" />
  </defs>
  <sodipodi:namedview
     id="base"
     pagecolor="#ffffff"
     bordercolor="#666666"
     borderopacity="1.0"
     inkscape:pageopacity="0.0"
     inkscape:pageshadow="2"
     inkscape:zoom="2.8"
     inkscape:cx="124.45792"
     inkscape:cy="143.77252"
     inkscape:document-units="px"
     inkscape:current-layer="layer1"
     inkscape:document-rotation="0"
     showgrid="false"
     inkscape:window-width="1661"
     inkscape:window-height="1034"
     inkscape:window-x="152"
     inkscape:window-y="46"
     inkscape:window-maximized="0" />
  <metadata
     id="metadata5">
    <rdf:RDF>
      <cc:Work
         rdf:about="">
        <dc:format>image/svg+xml</dc:format>
        <dc:type
           rdf:resource="http://purl.org/dc/dcmitype/StillImage" />
        <dc:title></dc:title>
      </cc:Work>
    </rdf:RDF>
  </metadata>
  <g
     inkscape:label="Layer 1"
     inkscape:groupmode="layer"
     id="layer1">
    <g
       style="font-size:14.1111px;line-height:1.05;font-family:'Yu Mincho';-inkscape-font-specification:'Yu Mincho';stroke-width:0.264583;stroke:#ffffff;stroke-opacity:1"
       id="text908"
       aria-label="Knåker
Server">
      <path
         id="path912"
         style="font-weight:bold;font-size:14.1111px;stroke-width:0.264583;stroke:#ffffff;stroke-opacity:1"
         d="m 16.67303,47.345657 v 2.776744 q 0,1.116211 0.03445,1.412489 0.02756,0.268717 0.137804,0.461642 0.130914,0.213596 0.406521,0.289388 0.137804,0.03445 0.627007,0.08268 0.137804,0.01378 0.137804,0.179145 0,0.172254 -0.137804,0.172254 -1.012857,-0.04134 -2.025715,-0.04134 -1.054198,0 -1.929252,0.04134 -0.158474,0 -0.158474,-0.172254 0,-0.165365 0.124024,-0.179145 0.537434,-0.06201 0.654567,-0.09646 0.220486,-0.07579 0.316949,-0.275607 0.172254,-0.310058 0.172254,-1.874131 v -5.119407 q 0,-1.10932 -0.02067,-1.357367 -0.02756,-0.268717 -0.130914,-0.482313 -0.103353,-0.199815 -0.406521,-0.268717 -0.137803,-0.02756 -0.654567,-0.08268 -0.09646,-0.01378 -0.09646,-0.179145 0,-0.199816 0.124023,-0.199816 1.219563,0.05512 2.005044,0.05512 0.73725,0 1.936143,-0.05512 0.151584,0 0.151584,0.186035 0,0.124024 -0.03445,0.158475 -0.03445,0.02756 -0.130914,0.03445 -0.482313,0.05512 -0.613226,0.103352 -0.165365,0.06201 -0.275608,0.248047 -0.213595,0.427191 -0.213595,1.83968 v 2.184188 q 0.606336,-0.530544 1.061088,-1.012857 l 1.577853,-1.653644 q 0.902614,-0.937066 0.902614,-1.302246 0,-0.07579 -0.02067,-0.151584 -0.05512,-0.179144 -0.633897,-0.241156 -0.124023,-0.01378 -0.124023,-0.192925 0,-0.172255 0.124023,-0.172255 0.523654,0.02756 1.639865,0.02756 0.654567,0 1.715656,-0.05512 0.110243,0 0.110243,0.186035 0,0.179145 -0.110243,0.192926 -0.606337,0.07579 -1.233344,0.482313 -1.019747,0.668348 -1.750107,1.398707 l -1.336696,1.336696 q -0.310058,0.310059 -0.564995,0.551215 l 3.369301,4.189233 q 0.840603,1.061089 1.302245,1.343586 0.275607,0.186035 0.916395,0.254937 0.09646,0.01378 0.09646,0.179145 0,0.172254 -0.110243,0.172254 -0.813042,-0.04134 -1.371147,-0.04134 -1.088649,0 -1.50895,0.01378 -0.523654,-0.778591 -1.11621,-1.536512 -0.36518,-0.475422 -1.033528,-1.343586 -1.336696,-1.750107 -1.901691,-2.466686 z m 5.415685,-4.533742 z m -1.198892,0.01378 z m 1.825899,9.542907 z" />
      <path
         id="path914"
         style="font-weight:bold;font-size:14.1111px;stroke-width:0.264583;stroke:#ffffff;stroke-opacity:1"
         d="m 26.305509,47.414559 q 0.778591,-1.343587 2.184189,-1.343587 0.702799,0 1.281575,0.399631 0.778591,0.530544 0.778591,1.619194 l -0.01378,1.570962 v 0.971516 q 0,1.254014 0.110243,1.49517 0.07579,0.151585 0.275608,0.206706 0.103353,0.02756 0.461642,0.06201 0.110243,0.02067 0.110243,0.165364 0,0.158474 -0.110243,0.158474 -0.0069,0 -0.840602,-0.02756 -0.427192,-0.01378 -0.695909,-0.01378 -0.303168,0 -0.847493,0.01378 -0.640787,0.02756 -0.764811,0.02756 -0.110242,0 -0.110242,-0.158474 0,-0.165364 0.110242,-0.165364 0.36518,-0.02756 0.482313,-0.0689 0.165365,-0.05512 0.241157,-0.199816 0.110243,-0.227376 0.110243,-1.49517 v -1.922362 q 0,-0.840602 -0.172255,-1.212672 -0.303168,-0.709689 -1.026637,-0.709689 -0.392741,0 -0.764811,0.261827 -0.310058,0.220486 -0.502984,0.544324 -0.296278,0.496094 -0.296278,1.129991 v 1.908581 q 0,1.316026 0.08268,1.49517 0.08268,0.158475 0.296278,0.206706 0.08268,0.02067 0.482313,0.06201 0.124023,0.01378 0.124023,0.165364 0,0.158474 -0.124023,0.158474 -0.172255,-0.0069 -0.509874,-0.01378 -0.695909,-0.02756 -0.999077,-0.02756 -0.316948,0 -0.854383,0.01378 -0.654568,0.02756 -0.771701,0.02756 -0.09646,0 -0.09646,-0.158474 0,-0.144694 0.09646,-0.165364 0.420302,-0.04134 0.509874,-0.07579 0.165364,-0.04823 0.241156,-0.192926 0.09646,-0.199815 0.09646,-1.49517 v -2.087726 q 0,-0.930175 -0.09646,-1.185112 -0.110243,-0.296278 -0.38585,-0.296278 -0.03445,0 -0.05512,0 l -0.378961,0.02756 q -0.04823,0 -0.0689,0 -0.117134,0 -0.130914,-0.158474 0,-0.03445 0,-0.06201 0,-0.117133 0.172255,-0.151584 1.074869,-0.206706 2.23242,-0.620117 0.165364,0 0.165364,0.117133 -0.02756,0.392741 -0.02756,1.198893 z" />
      <path
         id="path916"
         style="font-weight:bold;font-size:14.1111px;stroke-width:0.264583;stroke:#ffffff;stroke-opacity:1"
         d="m 35.180068,42.419174 q 0.578776,0 0.964626,0.420301 0.330729,0.36518 0.330729,0.861273 0,0.585666 -0.427191,0.971517 -0.37207,0.330729 -0.868164,0.330729 -0.585666,0 -0.971516,-0.427192 -0.330729,-0.37207 -0.330729,-0.875054 0,-0.571885 0.427192,-0.950845 0.37207,-0.330729 0.875053,-0.330729 z m 0,0.392741 q -0.413411,0 -0.668348,0.289387 -0.227376,0.248047 -0.227376,0.599446 0,0.413412 0.289388,0.682129 0.248047,0.227376 0.606336,0.227376 0.406521,0 0.668348,-0.296278 0.220486,-0.254937 0.220486,-0.613227 0,-0.40652 -0.289388,-0.668348 -0.248046,-0.220485 -0.599446,-0.220485 z m 0.888834,9.30175 q -0.454752,0.454752 -0.875053,0.633897 -0.461643,0.199816 -1.10243,0.199816 -0.992187,0 -1.4745,-0.571886 -0.330729,-0.39274 -0.330729,-0.923285 0,-0.730359 0.482313,-1.260904 0.296278,-0.261827 0.792372,-0.447862 0.186035,-0.07579 1.012857,-0.323838 0.73725,-0.220486 1.10243,-0.509874 Q 36,48.661682 36,48.358514 v -0.392741 q 0,-1.50206 -0.847493,-1.50206 -0.454752,0 -0.737249,0.282498 -0.248047,0.220485 -0.248047,0.792371 0,0.323839 -0.310058,0.509874 -0.282498,0.172254 -0.778591,0.172254 -0.551215,0 -0.551215,-0.454752 0,-0.613227 0.861273,-1.164441 0.833712,-0.530545 1.963703,-0.530545 1.384927,0 1.825899,0.633897 0.261827,0.385851 0.261827,1.254014 0,0.144694 0,0.213596 l -0.03445,2.95589 q -0.01378,1.233343 0.509874,1.233343 0.227376,0 0.413411,-0.09646 0.03445,-0.01378 0.06201,-0.01378 0.0689,0 0.117133,0.08957 0.04134,0.06201 0.04134,0.09646 0,0.05512 -0.08268,0.110243 -0.420302,0.323839 -1.198893,0.323839 -0.902614,0 -1.198892,-0.757921 z M 36,49.137105 q -0.179145,0.261827 -1.12999,0.620117 -1.033528,0.406521 -1.033528,1.48139 0,0.558105 0.337619,0.895724 0.254937,0.261827 0.551215,0.261827 0.578776,0 0.950846,-0.413411 0.310058,-0.34451 0.310058,-0.813042 z" />
      <path
         id="path918"
         style="font-weight:bold;font-size:14.1111px;stroke-width:0.264583;stroke:#ffffff;stroke-opacity:1"
         d="m 41.264102,49.274909 q 0.254937,-0.227376 0.751031,-0.71658 l 0.730359,-0.76481 q 0.564995,-0.599446 0.564995,-0.840603 0,-0.04823 -0.01378,-0.08957 -0.05512,-0.172255 -0.627007,-0.199816 -0.110243,0 -0.110243,-0.179145 0,-0.158474 0.110243,-0.158474 0.454752,0.01378 1.412488,0.01378 0.137804,0 1.302245,-0.04134 0.110243,0 0.110243,0.172255 0,0.179145 -0.09646,0.179145 -0.34451,0.03445 -0.875054,0.282498 -0.447862,0.213595 -1.12999,0.861273 l -0.633897,0.592556 q -0.137804,0.144694 -0.268718,0.254937 1.212673,1.743217 2.129068,2.935219 0.434081,0.537434 0.606336,0.661457 0.172255,0.110243 0.668348,0.158475 0.110243,0.01378 0.110243,0.165364 0,0.158474 -0.137804,0.158474 l -1.12999,-0.04134 q -0.792371,0 -1.143771,0.01378 -0.158474,-0.282498 -0.39274,-0.661458 -1.309136,-1.929252 -1.694986,-2.473577 l -0.241157,0.213596 v 0.875054 q 0,1.240233 0.09646,1.481389 0.06201,0.151585 0.275607,0.206706 0.110243,0.02756 0.489204,0.06201 0.124023,0.01378 0.124023,0.165364 0,0.158474 -0.124023,0.158474 -0.813042,-0.04134 -1.508951,-0.04134 -0.854383,0 -1.626084,0.04134 -0.137804,0 -0.137804,-0.158474 0,-0.151584 0.124024,-0.165364 0.413411,-0.04134 0.509873,-0.07579 0.165365,-0.04823 0.227377,-0.192926 0.09646,-0.213595 0.09646,-1.467609 v -6.394092 q 0,-0.895724 -0.08268,-1.198893 -0.09646,-0.296278 -0.420301,-0.296278 h -0.04823 l -0.323838,0.02756 h -0.0689 q -0.110243,0 -0.124024,-0.158474 -0.0069,-0.05512 -0.0069,-0.07579 0,-0.103353 0.158474,-0.137804 0.916395,-0.151584 2.287542,-0.613226 0.165365,0 0.165365,0.110243 -0.08268,2.087726 -0.08268,3.458873 z m 3.396862,-2.625161 z m -0.861273,0.01378 z m 1.440048,5.732635 z" />
      <path
         id="path920"
         style="font-weight:bold;font-size:14.1111px;stroke-width:0.264583;stroke:#ffffff;stroke-opacity:1"
         d="m 48.064715,48.978631 q -0.06201,0.261827 -0.06201,0.509873 0,1.378038 0.764811,2.191079 0.571885,0.606337 1.254014,0.606337 0.716579,0 1.192002,-0.275608 0.39274,-0.234266 0.7717,-0.74414 0.04823,-0.0689 0.137804,-0.0689 0.04134,0 0.130914,0.05512 0.110243,0.08957 0.110243,0.144694 0,0.03445 -0.0689,0.151584 -0.516764,0.792371 -1.198892,1.11621 -0.585666,0.282498 -1.412489,0.282498 -1.550291,0 -2.473576,-1.08865 -0.785481,-0.930175 -0.785481,-2.301322 0,-1.557182 1.033527,-2.583819 0.923285,-0.902615 2.239311,-0.902615 1.336696,0 2.142848,1.047309 0.571885,0.75103 0.606336,1.577852 0,0.137804 -0.0689,0.241157 -0.06201,0.0689 -0.213596,0.0689 -1.412488,-0.04134 -2.714733,-0.04134 -0.73725,0 -1.384927,0.01378 z m 0.0689,-0.509874 q 0.702799,0.01378 1.040418,0.01378 0.75792,0 1.598523,-0.06201 0.124023,-0.01378 0.124023,-0.220486 -0.04134,-0.74414 -0.351399,-1.219563 -0.316949,-0.489203 -0.847493,-0.489203 -0.599446,0 -1.040418,0.627007 -0.37207,0.530544 -0.523654,1.350476 z" />
      <path
         id="path922"
         style="font-weight:bold;font-size:14.1111px;stroke-width:0.264583;stroke:#ffffff;stroke-opacity:1"
         d="m 55.726604,47.607484 q 0.861273,-1.550292 1.819009,-1.550292 0.37896,0 0.599446,0.137804 0.179145,0.117133 0.179145,0.303168 0,0.434082 -0.282498,0.771701 -0.234266,0.282497 -0.482313,0.282497 -0.165364,0 -0.420301,-0.172254 -0.227376,-0.137804 -0.36518,-0.137804 -0.310058,0 -0.654568,0.420301 -0.39274,0.482313 -0.39274,1.247124 v 1.722546 q 0,1.295355 0.09646,1.49517 0.08268,0.158475 0.303168,0.206706 0.09646,0.02067 0.537435,0.06201 0.09646,0 0.09646,0.179145 0,0.144693 -0.09646,0.144693 -0.192925,-0.0069 -0.551215,-0.01378 -0.74414,-0.02756 -1.047308,-0.02756 -0.0069,0 -1.653645,0.04134 -0.110243,0 -0.110243,-0.144693 0,-0.158475 0.110243,-0.179145 0.427192,-0.04134 0.523654,-0.07579 0.165365,-0.04823 0.227377,-0.192926 0.137803,-0.268717 0.137803,-1.49517 v -2.087726 q 0,-0.799262 -0.110243,-1.157551 -0.08957,-0.310059 -0.427191,-0.310059 -0.03445,0 -0.05512,0 L 53.35638,47.1045 q -0.05512,0 -0.07579,0 -0.110243,0 -0.124024,-0.158474 0,-0.03445 0,-0.06201 0,-0.117133 0.172255,-0.151584 1.157551,-0.234266 2.259981,-0.633897 0.179145,0 0.179145,0.130914 -0.04134,1.157551 -0.04134,1.378037 z" />
      <path
         id="path924"
         style="font-weight:bold;font-size:14.1111px;stroke-width:0.264583;stroke:#ffffff;stroke-opacity:1"
         d="m 20.063001,57.263389 q 0,0.323839 0.144694,2.390895 0,0.117133 -0.144694,0.144694 -0.04823,0.0069 -0.08268,0.0069 -0.08957,0 -0.124024,-0.09646 -0.943955,-2.23242 -2.556259,-2.23242 -0.785481,0 -1.267794,0.544325 -0.427191,0.489203 -0.427191,1.233343 0,1.040418 1.577852,1.805228 l 0.757921,0.36518 q 1.660534,0.813042 2.184189,1.48139 0.523654,0.661458 0.523654,1.805229 0,1.536511 -1.129991,2.342663 -0.985296,0.709689 -2.638941,0.709689 -1.322916,0 -2.707843,-0.496093 -0.323839,-1.212673 -0.489203,-2.363334 -0.0069,-0.04134 -0.0069,-0.06201 0,-0.137803 0.158474,-0.165364 0.05512,-0.0069 0.08957,-0.0069 0.117134,0 0.151585,0.09646 0.537434,1.205783 1.364256,1.901692 0.771701,0.647677 1.598523,0.647677 0.964626,0 1.543402,-0.647677 0.502984,-0.558105 0.502984,-1.384928 0,-0.819932 -0.564996,-1.378037 -0.440972,-0.440972 -1.49517,-0.985296 l -0.702799,-0.36518 q -1.357367,-0.682129 -1.825899,-1.364257 -0.427192,-0.627007 -0.427192,-1.626084 0,-1.178222 0.985297,-1.901691 0.875053,-0.640787 2.177299,-0.640787 0.633897,0 1.426268,0.192925 0.35829,0.08957 0.778591,0.08957 0.303168,0 0.627007,-0.04134 z" />
      <path
         id="path926"
         style="font-weight:bold;font-size:14.1111px;stroke-width:0.264583;stroke:#ffffff;stroke-opacity:1"
         d="m 23.590776,63.795285 q -0.06201,0.261827 -0.06201,0.509874 0,1.378037 0.764811,2.191079 0.571885,0.606336 1.254014,0.606336 0.716579,0 1.192002,-0.275607 0.39274,-0.234266 0.771701,-0.74414 0.04823,-0.0689 0.137803,-0.0689 0.04134,0 0.130914,0.05512 0.110243,0.08957 0.110243,0.144694 0,0.03445 -0.0689,0.151584 -0.516764,0.792372 -1.198892,1.116211 -0.585666,0.282497 -1.412488,0.282497 -1.550292,0 -2.473577,-1.088649 -0.785481,-0.930175 -0.785481,-2.301322 0,-1.557182 1.033528,-2.58382 0.923284,-0.902614 2.23931,-0.902614 1.336696,0 2.142848,1.047308 0.571885,0.75103 0.606336,1.577853 0,0.137803 -0.0689,0.241156 -0.06201,0.0689 -0.213596,0.0689 -1.412488,-0.04134 -2.714733,-0.04134 -0.73725,0 -1.384927,0.01378 z m 0.0689,-0.509874 q 0.702799,0.01378 1.040418,0.01378 0.75792,0 1.598523,-0.06201 0.124023,-0.01378 0.124023,-0.220486 -0.04134,-0.74414 -0.351399,-1.219563 -0.316949,-0.489203 -0.847493,-0.489203 -0.599446,0 -1.040418,0.627007 -0.37207,0.530544 -0.523654,1.350476 z" />
      <path
         id="path928"
         style="font-weight:bold;font-size:14.1111px;stroke-width:0.264583;stroke:#ffffff;stroke-opacity:1"
         d="m 31.252662,62.424138 q 0.861273,-1.550292 1.819009,-1.550292 0.37896,0 0.599446,0.137804 0.179145,0.117133 0.179145,0.303168 0,0.434082 -0.282498,0.771701 -0.234266,0.282498 -0.482313,0.282498 -0.165364,0 -0.420301,-0.172255 -0.227376,-0.137804 -0.36518,-0.137804 -0.310058,0 -0.654568,0.420302 -0.39274,0.482313 -0.39274,1.247123 v 1.722547 q 0,1.295355 0.09646,1.49517 0.08268,0.158474 0.303168,0.206706 0.09646,0.02067 0.537434,0.06201 0.09646,0 0.09646,0.179145 0,0.144694 -0.09646,0.144694 -0.192925,-0.0069 -0.551215,-0.01378 -0.74414,-0.02756 -1.047308,-0.02756 -0.0069,0 -1.653644,0.04134 -0.110243,0 -0.110243,-0.144694 0,-0.158474 0.110243,-0.179145 0.427191,-0.04134 0.523654,-0.07579 0.165364,-0.04823 0.227376,-0.192925 0.137803,-0.268717 0.137803,-1.49517 v -2.087727 q 0,-0.799261 -0.110242,-1.157551 -0.08957,-0.310058 -0.427192,-0.310058 -0.03445,0 -0.05512,0 l -0.3514,0.02756 q -0.05512,0 -0.07579,0 -0.110243,0 -0.124023,-0.158475 0,-0.03445 0,-0.06201 0,-0.117133 0.172254,-0.151584 1.157551,-0.234267 2.259981,-0.633897 0.179145,0 0.179145,0.130913 -0.04134,1.157551 -0.04134,1.378037 z" />
      <path
         id="path930"
         style="font-weight:bold;font-size:14.1111px;stroke-width:0.264583;stroke:#ffffff;stroke-opacity:1"
         d="m 37.86035,66.220631 q 0.323839,-0.875054 0.440972,-1.240234 l 0.592556,-1.84657 q 0.234266,-0.737249 0.234266,-1.1231 0,-0.172255 -0.05512,-0.275607 -0.110243,-0.213596 -0.737249,-0.282498 -0.09646,-0.02067 -0.09646,-0.165364 0,-0.172255 0.110243,-0.172255 0.606336,0.04134 1.329806,0.04134 0.647677,0 1.192002,-0.04134 0.137804,0 0.137804,0.172255 0,0.151584 -0.137804,0.165364 -0.434082,0.05512 -0.72347,0.337619 -0.323838,0.344509 -0.709689,1.343586 l -0.943955,2.625161 q -0.117133,0.330729 -0.330729,0.923285 -0.144694,0.413411 -0.261827,0.73036 -0.785481,0.323838 -0.861273,0.323838 -0.08268,0 -0.124024,-0.08268 -0.254937,-0.771701 -0.647677,-1.85346 L 35.26275,63.133827 q -0.509874,-1.281574 -0.661458,-1.453829 -0.186035,-0.186035 -0.75103,-0.227376 -0.110243,-0.02067 -0.110243,-0.165364 0,-0.172255 0.110243,-0.172255 1.577852,0.04134 1.626084,0.04134 0.916394,0 1.708766,-0.04134 0.110243,0 0.110243,0.172255 0,0.165364 -0.09646,0.165364 -0.695909,0.02756 -0.792371,0.241157 -0.01378,0.04134 -0.01378,0.110243 0,0.234266 0.406521,1.329805 l 0.695909,1.915472 q 0.130913,0.37207 0.36518,1.171332 z m 2.23242,-4.768009 z m -0.668348,0 z" />
      <path
         id="path932"
         style="font-weight:bold;font-size:14.1111px;stroke-width:0.264583;stroke:#ffffff;stroke-opacity:1"
         d="m 43.131342,63.795285 q -0.06201,0.261827 -0.06201,0.509874 0,1.378037 0.76481,2.191079 0.571886,0.606336 1.254014,0.606336 0.716579,0 1.192002,-0.275607 0.392741,-0.234266 0.771701,-0.74414 0.04823,-0.0689 0.137804,-0.0689 0.04134,0 0.130913,0.05512 0.110243,0.08957 0.110243,0.144694 0,0.03445 -0.0689,0.151584 -0.516764,0.792372 -1.198892,1.116211 -0.585666,0.282497 -1.412488,0.282497 -1.550292,0 -2.473577,-1.088649 -0.785481,-0.930175 -0.785481,-2.301322 0,-1.557182 1.033528,-2.58382 0.923285,-0.902614 2.23931,-0.902614 1.336696,0 2.142848,1.047308 0.571885,0.75103 0.606336,1.577853 0,0.137803 -0.0689,0.241156 -0.06201,0.0689 -0.213596,0.0689 -1.412488,-0.04134 -2.714733,-0.04134 -0.73725,0 -1.384928,0.01378 z m 0.0689,-0.509874 q 0.702799,0.01378 1.040418,0.01378 0.757921,0 1.598523,-0.06201 0.124024,-0.01378 0.124024,-0.220486 -0.04134,-0.74414 -0.3514,-1.219563 -0.316948,-0.489203 -0.847493,-0.489203 -0.599446,0 -1.040418,0.627007 -0.37207,0.530544 -0.523654,1.350476 z" />
      <path
         id="path934"
         style="font-weight:bold;font-size:14.1111px;stroke-width:0.264583;stroke:#ffffff;stroke-opacity:1"
         d="m 50.793227,62.424138 q 0.861274,-1.550292 1.819009,-1.550292 0.378961,0 0.599447,0.137804 0.179144,0.117133 0.179144,0.303168 0,0.434082 -0.282497,0.771701 -0.234267,0.282498 -0.482313,0.282498 -0.165365,0 -0.420302,-0.172255 -0.227376,-0.137804 -0.365179,-0.137804 -0.310059,0 -0.654568,0.420302 -0.392741,0.482313 -0.392741,1.247123 v 1.722547 q 0,1.295355 0.09646,1.49517 0.08268,0.158474 0.303168,0.206706 0.09646,0.02067 0.537435,0.06201 0.09646,0 0.09646,0.179145 0,0.144694 -0.09646,0.144694 -0.192926,-0.0069 -0.551215,-0.01378 -0.74414,-0.02756 -1.047308,-0.02756 -0.0069,0 -1.653645,0.04134 -0.110243,0 -0.110243,-0.144694 0,-0.158474 0.110243,-0.179145 0.427192,-0.04134 0.523654,-0.07579 0.165365,-0.04823 0.227376,-0.192925 0.137804,-0.268717 0.137804,-1.49517 v -2.087727 q 0,-0.799261 -0.110243,-1.157551 -0.08957,-0.310058 -0.427192,-0.310058 -0.03445,0 -0.05512,0 l -0.351399,0.02756 q -0.05512,0 -0.07579,0 -0.110243,0 -0.124024,-0.158475 0,-0.03445 0,-0.06201 0,-0.117133 0.172255,-0.151584 1.157551,-0.234267 2.259981,-0.633897 0.179145,0 0.179145,0.130913 -0.04134,1.157551 -0.04134,1.378037 z" />
    </g>
    <g
       transform="matrix(2.25,0,0,2.25,14.912521,-1.4250929)"
       id="layer1-9"
       inkscape:label="Layer 1">
      <path
         style="fill:#d00000;fill-opacity:1;stroke:none;stroke-width:0.0457796px;stroke-linecap:butt;stroke-linejoin:miter;stroke-opacity:1"
         d="M 5.8628361,10.985098 2.5438174,4.9520043 8.6750144,7.8949758 Z"
         id="path864" />
      <path
         style="fill:#d00000;fill-opacity:1;stroke:none;stroke-width:0.0457796px;stroke-linecap:butt;stroke-linejoin:miter;stroke-opacity:1"
         d="M 8.3970661,8.3200755 9.8031524,2.1561781 11.50354,8.4999199 Z"
         id="path866" />
      <path
         style="fill:#d00000;fill-opacity:1;stroke:none;stroke-width:0.0457796px;stroke-linecap:butt;stroke-linejoin:miter;stroke-opacity:1"
         d="m 11.429962,8.794222 4.422642,-3.1964 -2.346205,6.907814 -2.076437,-3.7604668 z"
         id="path868" />
      <ellipse
         ry="0.82600588"
         rx="0.82600617"
         cy="2.2179585"
         cx="9.8257065"
         id="path851"
         style="fill:#f8f800;fill-opacity:1;stroke:#303030;stroke-width:0.274677;stroke-linecap:round;stroke-miterlimit:4;stroke-dasharray:none;stroke-opacity:1;paint-order:stroke fill markers" />
      <ellipse
         style="fill:#6da555;fill-opacity:1;stroke:#303030;stroke-width:0.274677;stroke-linecap:round;stroke-miterlimit:4;stroke-dasharray:none;stroke-opacity:1;paint-order:stroke fill markers"
         id="path851-3"
         cx="2.5643392"
         cy="5.2683439"
         rx="0.82600617"
         ry="0.826006" />
      <ellipse
         ry="0.826006"
         rx="0.82600617"
         cy="5.6692352"
         cx="15.67612"
         id="path851-3-5"
         style="fill:#68aae0;fill-opacity:1;stroke:#303030;stroke-width:0.274677;stroke-linecap:round;stroke-miterlimit:4;stroke-dasharray:none;stroke-opacity:1;paint-order:stroke fill markers" />
      <path
         style="fill:#3c7824;fill-opacity:1;stroke:none;stroke-width:0.0457796px;stroke-linecap:butt;stroke-linejoin:miter;stroke-opacity:1"
         d="m 5.6911639,13.552028 -0.9319398,2.975675 3.4007712,0.0981 1.0790909,1.536886 1.4224338,-1.831187 3.139174,-0.114446 -0.703044,-2.452483 z"
         id="path870" />
      <g
         id="g849"
         transform="matrix(0.17302526,0,0,0.17302526,-10.345822,-11.617172)">
        <g
           transform="translate(-30.143601,6.9925595)"
           id="g854">
          <circle
             style="fill:#d00000;fill-opacity:1;stroke:#303030;stroke-width:1.5875;stroke-linecap:round;stroke-miterlimit:4;stroke-dasharray:none;stroke-opacity:1;paint-order:stroke fill markers"
             id="path883"
             cx="143.65738"
             cy="128.82391"
             r="24.722431"
             transform="translate(0.60135643,0.13363477)" />
          <circle
             style="fill:#f8e89b;fill-opacity:1;stroke:#303030;stroke-width:1.30849;stroke-linecap:round;stroke-miterlimit:4;stroke-dasharray:none;stroke-opacity:1;paint-order:stroke fill markers"
             id="path883-1"
             cx="144.19191"
             cy="129.02437"
             r="20.377235" />
        </g>
        <ellipse
           style="fill:#000000;fill-opacity:1;stroke:#f8e798;stroke-width:1.70272;stroke-linecap:round;stroke-miterlimit:4;stroke-dasharray:none;stroke-opacity:1;paint-order:stroke fill markers"
           id="path900"
           cx="106.49793"
           cy="129.64832"
           rx="4.2855182"
           ry="4.907836" />
        <ellipse
           ry="4.9954534"
           rx="4.2786417"
           cy="129.62064"
           cx="121.79913"
           id="path900-2"
           style="fill:#000000;fill-opacity:1;stroke:#f8e798;stroke-width:1.71648;stroke-linecap:round;stroke-miterlimit:4;stroke-dasharray:none;stroke-opacity:1;paint-order:stroke fill markers" />
        <path
           style="fill:none;stroke:#000000;stroke-width:1.05833;stroke-linecap:butt;stroke-linejoin:miter;stroke-miterlimit:4;stroke-dasharray:none;stroke-opacity:1"
           d="m 105.22383,139.89398 c 0,0 3.97172,5.06659 6.89529,7.70462 0.87344,0.78813 2.10065,1.01485 3.02381,0.18899 1.55791,-1.39371 7.36104,-7.16058 7.36104,-8.389"
           id="path873"
           sodipodi:nodetypes="cssc" />
      </g>
    </g>
  </g>
</svg>
